<?xml version="1.0" standalone="no"?>
<!DOCTYPE svg PUBLIC "-//W3C//DTD SVG 20010904//EN"
 "http://www.w3.org/TR/2001/REC-SVG-20010904/DTD/svg10.dtd">
<svg version="1.0" xmlns="http://www.w3.org/2000/svg"
 width="1759.000000pt" height="1613.000000pt" viewBox="0 0 1759.000000 1613.000000"
 preserveAspectRatio="xMidYMid meet">
<metadata>
Created by potrace 1.16, written by Peter Selinger 2001-2019
</metadata>
<g transform="translate(0.000000,1613.000000) scale(0.100000,-0.100000)"
fill="#000000" stroke="none">
<path d="M15928 16110 c-349 -59 -624 -317 -714 -670 -27 -108 -25 -314 5
-425 141 -523 705 -800 1202 -590 380 160 603 579 520 980 -38 186 -113 327
-242 455 -176 175 -389 262 -634 259 -49 -1 -111 -5 -137 -9z m337 -134 c33
-9 103 -37 155 -63 81 -39 109 -60 191 -142 83 -83 103 -110 142 -191 61 -125
80 -208 80 -345 1 -289 -152 -538 -413 -674 -110 -57 -212 -82 -345 -82 -671
0 -1013 799 -549 1281 118 122 242 191 404 226 81 17 252 12 335 -10z"/>
<path d="M15780 15246 l0 -486 65 0 65 0 0 221 0 221 139 -4 c122 -3 143 -6
168 -24 44 -32 60 -78 83 -236 11 -81 23 -154 26 -163 5 -11 22 -15 70 -15 70
0 71 1 54 60 -6 19 -19 97 -30 173 -24 165 -44 212 -101 236 -44 18 -48 26
-16 35 36 9 98 67 118 110 29 65 26 161 -9 227 -24 47 -36 58 -96 89 l-69 35
-233 4 -234 3 0 -486z m477 338 c60 -45 69 -165 16 -218 -37 -37 -81 -46 -230
-46 l-133 0 0 146 0 146 159 -4 c143 -3 162 -5 188 -24z"/>
<path d="M9630 15103 c-355 -24 -506 -40 -760 -79 -1187 -181 -2324 -651
-3295 -1363 -601 -439 -1132 -963 -1582 -1558 l-115 -153 -1847 0 -1846 0 -88
-88 -87 -87 0 -62 c0 -113 30 -294 66 -403 122 -365 401 -557 895 -614 74 -9
155 -16 180 -16 l47 0 11 -65 c41 -235 162 -439 339 -572 194 -147 442 -230
808 -271 l148 -17 13 -78 c17 -100 62 -217 117 -302 l43 -67 -18 -82 c-55
-236 -115 -608 -144 -886 -51 -489 -51 -1071 0 -1560 114 -1092 453 -2122
1008 -3060 621 -1048 1485 -1932 2522 -2577 977 -609 2075 -981 3230 -1097
407 -41 1013 -46 1395 -12 1254 114 2395 502 3441 1172 635 407 1245 948 1737
1541 793 957 1350 2127 1586 3330 460 2351 -184 4722 -1767 6508 -130 146
-432 450 -582 584 -1292 1159 -2883 1826 -4605 1931 -148 9 -735 11 -850 3z
m890 -184 c1306 -84 2571 -521 3665 -1267 656 -447 1271 -1037 1748 -1675 871
-1164 1368 -2522 1457 -3977 13 -215 13 -665 0 -883 -38 -624 -155 -1242 -350
-1852 l-31 -95 -6981 2 -6981 3 -29 85 c-53 158 -139 470 -184 668 -224 997
-241 2031 -48 3037 14 72 30 147 35 167 l10 37 62 -34 c134 -73 318 -126 514
-146 181 -18 173 -15 193 -84 56 -205 228 -394 466 -513 204 -102 539 -176
913 -202 85 -5 156 -12 158 -14 3 -2 -9 -28 -25 -57 -60 -109 -774 -1442 -779
-1455 -4 -12 158 -14 1088 -14 l1094 0 335 608 c184 334 356 645 382 692 l48
85 0 -46 c0 -51 -66 -1142 -76 -1256 l-6 -73 963 0 964 0 659 658 c362 361
656 650 653 642 -3 -8 -39 -98 -80 -200 -42 -102 -159 -390 -261 -640 l-185
-455 92 -3 c93 -3 1571 22 1963 34 l211 6 80 147 c44 80 289 529 545 996 256
468 635 1161 843 1540 208 380 480 877 605 1105 284 519 609 1113 753 1375 60
110 129 237 154 283 l45 82 -249 0 c-232 0 -1268 12 -2228 25 l-420 6 -45 -43
c-25 -23 -153 -146 -285 -273 -132 -127 -636 -611 -1120 -1075 -484 -465 -952
-914 -1040 -999 -87 -84 -161 -149 -163 -143 -1 5 15 279 38 608 22 330 56
831 75 1114 19 283 39 576 45 651 5 74 10 141 10 147 0 9 -287 12 -1244 12
l-1245 0 -82 -155 -82 -155 -1528 0 c-841 0 -1529 3 -1529 7 0 10 96 135 206
269 379 462 816 882 1287 1235 1030 773 2236 1260 3512 1419 455 56 931 70
1405 39z m-3458 -3155 c1 -3 -86 -170 -193 -370 l-194 -363 -2655 -1 -2655 0
-85 -85 -85 -85 -62 0 c-87 0 -267 26 -381 56 -252 66 -422 209 -499 421 -36
100 -54 195 -60 323 l-6 115 3437 -2 c1890 -2 3437 -6 3438 -9z m-496 -930
c-6 -15 -240 -454 -348 -651 l-39 -73 -1752 0 -1752 0 -87 -87 -87 -87 -119
12 c-653 65 -983 328 -1009 805 l-6 97 2603 0 c2404 0 2602 -1 2596 -16z
m-488 -912 c-1 -5 -75 -142 -162 -305 l-160 -297 -1005 0 -1006 0 -87 -86 -86
-87 -137 17 c-517 65 -730 253 -761 674 l-7 92 1707 0 c939 0 1706 -4 1704 -8z
m-465 -869 c-26 -49 -120 -223 -209 -388 l-161 -300 -149 1 c-352 4 -733 78
-949 186 -253 127 -370 283 -400 536 l-7 52 961 0 961 0 -47 -87z m763 -4231
c49 -13 88 -16 134 -11 298 30 324 31 402 19 147 -21 191 -46 227 -131 70
-161 22 -313 -219 -704 -191 -309 -249 -447 -250 -587 l0 -56 63 -6 c34 -3
130 -7 213 -8 l152 -3 7 60 c13 123 91 302 232 535 38 63 82 138 97 167 31 57
67 78 188 110 96 25 274 23 363 -5 125 -38 141 -78 101 -245 -40 -168 -83
-235 -176 -276 -58 -26 -184 -41 -335 -41 l-121 0 -41 -122 c-23 -68 -44 -138
-48 -155 l-7 -33 471 0 470 0 6 38 c13 74 47 184 86 278 45 108 244 510 256
517 12 7 659 30 729 26 l61 -4 -21 -72 c-12 -39 -23 -74 -26 -76 -3 -3 -108
-10 -235 -16 -266 -13 -335 -20 -335 -32 0 -5 -33 -86 -74 -181 -92 -213 -124
-309 -133 -389 l-6 -62 44 6 c24 3 79 9 121 13 l77 6 66 152 c37 83 86 195
108 248 l42 98 112 0 111 0 -23 -72 c-13 -40 -46 -139 -74 -219 -28 -81 -53
-165 -57 -188 l-7 -41 175 0 174 0 104 218 c220 461 349 772 385 925 24 102
29 97 -81 97 l-96 0 7 33 c3 17 13 60 22 95 l16 62 183 2 c101 1 214 3 252 3
l67 0 -3 -35 c-7 -85 -59 -225 -154 -414 -32 -65 -58 -120 -56 -121 2 -2 75
-13 163 -25 159 -21 219 -33 242 -48 51 -33 42 -199 -21 -410 -13 -43 -40
-133 -60 -202 -21 -69 -40 -149 -43 -177 l-6 -53 184 0 185 0 17 124 c22 163
82 346 150 463 57 96 200 250 252 270 17 7 121 16 232 21 112 4 205 11 208 14
3 2 14 40 26 84 11 43 47 148 80 234 32 85 65 178 74 206 l15 51 76 7 c43 3
101 6 131 6 l54 0 -7 -37 c-13 -74 -58 -201 -131 -373 -41 -96 -79 -199 -84
-229 -13 -83 -24 -112 -124 -321 -102 -216 -132 -293 -141 -372 -7 -56 8 -129
29 -146 6 -5 89 -13 183 -17 l170 -7 12 119 c21 217 80 393 176 527 51 71 138
155 199 191 l42 24 705 11 c388 6 896 7 1130 4 234 -4 442 -4 462 0 34 6 38
11 77 100 22 51 72 173 110 272 l70 179 48 7 c69 9 173 9 173 0 0 -5 -14 -46
-31 -93 -48 -128 -149 -431 -149 -445 0 -8 33 -13 114 -15 63 -2 117 -6 120
-9 2 -3 2 -40 -1 -82 l-6 -76 -101 -6 c-55 -4 -123 -9 -150 -12 l-48 -6 -34
-74 c-52 -112 -91 -222 -149 -424 l-53 -185 204 -3 c234 -3 213 10 193 -113
l-12 -69 -289 0 -289 0 -51 26 -51 26 6 86 c7 111 29 181 132 422 46 108 88
216 95 240 6 25 13 53 16 63 5 16 -10 17 -210 17 l-215 0 -6 -57 c-22 -214
-86 -392 -198 -557 -57 -85 -180 -211 -261 -267 l-69 -49 -111 0 c-96 0 -118
3 -161 24 -62 30 -162 130 -175 176 -17 61 -12 239 10 324 21 83 86 229 145
325 19 32 35 61 35 65 0 3 -94 6 -209 6 l-209 0 -22 -97 c-49 -216 -141 -453
-221 -570 -102 -148 -270 -243 -431 -243 -60 0 -185 29 -267 61 -108 43 -262
53 -584 39 -139 -6 -306 -15 -372 -20 -66 -5 -336 -10 -599 -10 l-479 0 6 53
c7 75 38 158 132 362 94 204 116 269 118 358 l2 62 -94 3 c-66 2 -108 -2 -142
-13 l-48 -16 -64 -153 c-79 -185 -140 -372 -167 -512 -11 -58 -20 -106 -20
-108 0 -2 -114 -6 -252 -10 -139 -3 -299 -9 -355 -12 l-101 -7 -6 -32 c-10
-49 -75 -144 -142 -203 -68 -61 -190 -125 -283 -148 -84 -21 -202 -21 -272 -1
-94 28 -175 114 -194 207 -3 19 -9 43 -12 53 -4 16 5 17 128 15 l132 -3 14
-41 c19 -56 55 -88 98 -87 40 1 80 26 153 97 40 39 52 57 52 81 0 16 -4 35 -8
42 -9 14 -179 18 -1365 39 -693 11 -864 17 -892 28 -48 20 -68 65 -73 163 -7
137 20 213 228 628 178 357 211 438 225 548 9 67 0 82 -53 97 -118 32 -221
-97 -332 -415 -23 -66 -55 -151 -70 -190 -16 -38 -32 -90 -35 -115 -12 -77
-45 -159 -141 -351 -51 -102 -103 -220 -115 -262 l-23 -77 -113 0 c-62 0 -113
4 -113 9 0 4 20 50 44 102 90 193 213 505 386 977 105 285 106 292 36 326 -35
17 -46 18 -95 8 -30 -7 -75 -22 -100 -34 -54 -27 -42 0 -205 -477 -103 -299
-151 -429 -239 -636 -14 -33 -29 -77 -32 -98 -4 -23 -20 -53 -40 -76 -91 -101
-303 -137 -670 -114 l-107 6 4 74 c3 40 8 76 12 80 4 4 119 9 256 11 l249 4
31 75 c17 40 89 246 160 456 134 399 186 529 273 686 44 79 60 99 113 137 153
109 274 132 460 86z m8834 -2505 c-564 -557 -1162 -989 -1860 -1342 -873 -440
-1801 -697 -2795 -771 -281 -21 -941 -15 -1195 10 -703 70 -1314 211 -1945
448 -838 316 -1616 789 -2300 1399 -123 109 -400 378 -440 427 l-18 22 5374 0
5374 0 -195 -193z"/>
<path d="M7709 4023 c-45 -4 -46 -5 -77 -68 -22 -43 -32 -78 -32 -109 l0 -46
54 0 c29 0 73 3 98 6 41 6 46 9 60 48 9 22 28 71 42 109 l26 67 -63 -2 c-34
-1 -83 -3 -108 -5z"/>
<path d="M12537 3976 c-59 -22 -72 -39 -128 -174 -58 -142 -109 -330 -109
-401 0 -41 4 -50 29 -69 26 -19 35 -20 88 -12 32 6 61 10 64 10 12 0 131 314
155 409 34 133 30 216 -10 243 -16 11 -46 9 -89 -6z"/>
<path d="M13768 3941 c-58 -65 -118 -180 -164 -317 -32 -94 -37 -122 -38 -206
-1 -53 1 -98 4 -101 3 -2 40 1 83 6 l77 10 60 118 c80 157 131 311 138 414 l5
80 -54 20 c-29 11 -56 21 -60 23 -4 2 -27 -20 -51 -47z"/>
<path d="M11255 3918 c-16 -29 -36 -66 -45 -83 -75 -135 -139 -363 -126 -447
11 -73 18 -77 109 -65 l78 10 35 70 c93 184 156 458 124 541 -9 24 -14 26 -78
26 l-69 0 -28 -52z"/>
</g>
</svg>
